<svg width="100%" height="100%" viewBox="0 0 158 46" fill="none" xmlns="http://www.w3.org/2000/svg">
<path d="M52 39.9745H54.3592V35.1586H59.4191V33.1412H54.3592V30.3428H60.3302V28.3416H52V39.9745ZM68.7208 40.2184C70.9498 40.2184 72.3326 38.8029 72.479 37.0295H70.3478C70.2014 37.9732 69.5668 38.445 68.672 38.445C67.3216 38.445 66.687 37.3874 66.687 35.8093C66.687 34.1986 67.3704 33.1736 68.7045 33.1736C69.518 33.1736 70.0875 33.7267 70.2339 34.4589H72.3978C72.1049 32.6529 70.7707 31.4002 68.6068 31.4002C66.0687 31.4002 64.4417 33.32 64.4417 35.8093C64.4417 38.2986 66.0851 40.2184 68.7208 40.2184ZM78.5751 30.3265H80.7878V28.3416H78.5751V30.3265ZM78.5751 39.9745H80.7878V31.6281H78.5751V39.9745ZM93.4487 31.6279H91.2849V39.9743H93.4976V35.2398C93.4976 34.1009 94.2134 33.32 95.1896 33.32C96.117 33.32 96.6376 33.9545 96.6376 34.8494V39.9743H98.8503V34.524C98.8503 32.7017 97.6952 31.4002 95.9706 31.4002C94.8317 31.4002 94.067 31.872 93.4976 32.7668H93.4487V31.6279ZM108.475 39.9745H110.688V28.3416H108.475V39.9745ZM127.354 40.2184C129.941 40.2184 131.714 38.2986 131.714 35.8093C131.714 33.32 129.941 31.4002 127.354 31.4002C124.767 31.4002 122.994 33.32 122.994 35.8093C122.994 38.2986 124.767 40.2184 127.354 40.2184ZM127.354 38.5263C125.987 38.5263 125.239 37.4363 125.239 35.8093C125.239 34.1823 125.987 33.076 127.354 33.076C128.704 33.076 129.469 34.1823 129.469 35.8093C129.469 37.4363 128.704 38.5263 127.354 38.5263ZM145.529 40.2184C148.116 40.2184 149.89 38.2986 149.89 35.8093C149.89 33.32 148.116 31.4002 145.529 31.4002C142.942 31.4002 141.169 33.32 141.169 35.8093C141.169 38.2986 142.942 40.2184 145.529 40.2184ZM145.529 38.5263C144.163 38.5263 143.414 37.4363 143.414 35.8093C143.414 34.1823 144.163 33.076 145.529 33.076C146.88 33.076 147.644 34.1823 147.644 35.8093C147.644 37.4363 146.88 38.5263 145.529 38.5263ZM52 23.5483H56.3444C57.8088 23.5483 58.9315 23.1478 59.7938 22.4431C61.0141 21.434 61.6487 19.8002 61.6487 17.9423C61.6487 14.5626 59.6474 12.096 56.5396 12.096H52V23.5483ZM54.3593 21.5461V14.0821H56.2468C58.2481 14.0821 59.2569 15.6678 59.2569 17.9423C59.2569 20.2167 58.3945 21.5461 56.1817 21.5461H54.3593ZM71.3324 26.2392H73.5452V22.6193H73.5778C74.0497 23.324 74.8144 23.7885 75.9859 23.7885C78.1337 23.7885 79.598 22.1067 79.598 19.4479C79.598 16.8851 78.1825 15.1072 75.9696 15.1072C74.8307 15.1072 74.0496 15.6358 73.5126 16.3566H73.4639V15.3315H71.3324V26.2392ZM75.514 21.9786C74.1961 21.9786 73.4964 21.0016 73.4964 19.512C73.4964 18.0384 74.0497 16.8691 75.4327 16.8691C76.7994 16.8691 77.3527 17.9583 77.3527 19.512C77.3527 21.0656 76.6367 21.9786 75.514 21.9786ZM90.989 15.3315H88.8575V23.5483H91.0704V19.544C91.0704 17.8141 92.1117 17.0613 93.5598 17.2055H93.6087V15.2994C93.4785 15.2514 93.332 15.2354 93.088 15.2354C92.1117 15.2354 91.5421 15.7159 91.0378 16.6449H90.989V15.3315ZM99.7725 23.5483H101.985V18.7752C101.985 17.686 102.587 16.9813 103.482 16.9813C104.295 16.9813 104.767 17.4618 104.767 18.3908V23.5483H106.98V18.7752C106.98 17.686 107.55 16.9813 108.477 16.9813C109.291 16.9813 109.763 17.4618 109.763 18.3908V23.5483H111.975V18.0224C111.975 16.2284 110.983 15.1072 109.226 15.1072C108.168 15.1072 107.289 15.6518 106.72 16.5488H106.687C106.281 15.6839 105.434 15.1072 104.377 15.1072C103.222 15.1072 102.408 15.6839 101.952 16.4367H101.904V15.3315H99.7725V23.5483ZM124.085 15.3315H121.921V23.5483H124.134V18.8873C124.134 17.7661 124.85 16.9973 125.826 16.9973C126.754 16.9973 127.274 17.6219 127.274 18.5029V23.5483H129.487V18.1825C129.487 16.3886 128.332 15.1072 126.607 15.1072C125.468 15.1072 124.703 15.5717 124.134 16.4527H124.085V15.3315ZM141.626 23.7725C142.993 23.7725 144.072 23.276 144.864 22.2829C145.656 21.2899 146.052 20.0992 146.052 18.7111C146.052 17.6006 145.721 16.7143 145.059 16.0522C144.398 15.3902 143.552 15.0592 142.521 15.0592C141.187 15.0592 140.113 15.5611 139.3 16.5648C138.486 17.5579 138.079 18.7538 138.079 20.1526C138.079 21.2845 138.41 22.1708 139.072 22.8115C139.744 23.4522 140.596 23.7725 141.626 23.7725ZM139.381 20.1366C139.381 19.0368 139.652 18.0918 140.194 17.3016C140.748 16.5114 141.512 16.1163 142.489 16.1163C143.226 16.1163 143.785 16.3619 144.165 16.8531C144.544 17.3443 144.734 17.9636 144.734 18.7111C144.734 19.8323 144.463 20.7773 143.92 21.5461C143.378 22.315 142.63 22.6994 141.675 22.6994C140.937 22.6994 140.368 22.4644 139.967 21.9946C139.576 21.5141 139.381 20.8948 139.381 20.1366ZM51 7.23041H55.9027V6.0068H52.478V0H51V7.23041ZM64.3585 9C65.1332 9 65.8059 8.81798 66.2442 8.41348C66.6315 8.05954 66.8659 7.56403 66.8659 6.83593V2.04263H65.5307V2.5887H65.5103C65.1943 2.15386 64.7152 1.90105 64.0629 1.90105C62.7379 1.90105 61.8001 2.89207 61.8001 4.43928C61.8001 6.00671 62.9417 6.91683 64.1037 6.91683C64.7662 6.91683 65.1637 6.65391 65.4695 6.31008H65.5001V6.87638C65.5001 7.58426 65.123 7.95842 64.3381 7.95842C63.696 7.95842 63.4004 7.7056 63.2883 7.38201H61.9123C62.0549 8.39325 62.9315 9 64.3585 9ZM64.3381 5.81457C63.6246 5.81457 63.1558 5.29884 63.1558 4.41906C63.1558 3.54938 63.6246 3.00331 64.3279 3.00331C65.1637 3.00331 65.5714 3.65051 65.5714 4.40894C65.5714 5.17749 65.2147 5.81457 64.3381 5.81457ZM73.3315 1.23372H74.7177V0H73.3315V1.23372ZM73.3315 7.23041H74.7177V2.04272H73.3315V7.23041ZM83.2741 7.38201C84.5787 7.38201 85.4757 6.75503 85.4757 5.71345C85.4757 4.49996 84.5074 4.25726 83.6308 4.07523C82.8868 3.92354 82.1937 3.88309 82.1937 3.43815C82.1937 3.06399 82.5504 2.86174 83.0906 2.86174C83.6818 2.86174 84.0385 3.06399 84.0997 3.62017H85.3534C85.2515 2.57859 84.487 1.90105 83.111 1.90105C81.9185 1.90105 80.9807 2.43701 80.9807 3.5595C80.9807 4.69209 81.8981 4.9449 82.8358 5.12693C83.5493 5.2685 84.2118 5.31906 84.2118 5.81457C84.2118 6.17862 83.8653 6.41121 83.2537 6.41121C82.6319 6.41121 82.2038 6.14829 82.1121 5.55165H80.8278C80.9094 6.65391 81.7554 7.38201 83.2741 7.38201ZM91.3555 7.23032H92.7417V4.21681C92.7417 3.52916 93.1188 3.08421 93.6794 3.08421C94.1891 3.08421 94.4846 3.38758 94.4846 3.97411V7.23032H95.8708V4.21681C95.8708 3.52916 96.2276 3.08421 96.8086 3.08421C97.3182 3.08421 97.6138 3.38758 97.6138 3.97411V7.23032H99V3.74152C99 2.60893 98.3783 1.90105 97.2775 1.90105C96.6149 1.90105 96.0645 2.24488 95.7078 2.81117H95.6874C95.4326 2.2651 94.9026 1.90105 94.24 1.90105C93.5164 1.90105 93.0067 2.2651 92.7213 2.74039H92.6908V2.04263H91.3555V7.23032ZM90.5988 7.23044V2.04275H89.2126V5.03604C89.2126 5.72369 88.8151 6.20908 88.1628 6.20908C87.5716 6.20908 87.2964 5.87537 87.2964 5.26863V2.04275H85.9204V5.50121C85.9204 6.63381 86.5726 7.37202 87.7346 7.37202C88.4684 7.37202 88.8762 7.09898 89.233 6.62369H89.2635V7.23044H90.5988ZM75.471 8.92921H76.8572V6.6438H76.8776C77.1731 7.08874 77.6522 7.38201 78.3861 7.38201C79.7315 7.38201 80.6488 6.3202 80.6488 4.64153C80.6488 3.02354 79.7621 1.90105 78.3759 1.90105C77.6624 1.90105 77.1731 2.23476 76.8368 2.68982H76.8062V2.04263H75.471V8.92921ZM78.0905 6.2393C77.2649 6.2393 76.8266 5.62244 76.8266 4.68198C76.8266 3.75163 77.1731 3.01342 78.0395 3.01342C78.8957 3.01342 79.2423 3.70107 79.2423 4.68198C79.2423 5.66289 78.7938 6.2393 78.0905 6.2393ZM70.0954 7.38201C71.716 7.38201 72.827 6.18874 72.827 4.64153C72.827 3.09432 71.716 1.90105 70.0954 1.90105C68.4747 1.90105 67.3637 3.09432 67.3637 4.64153C67.3637 6.18874 68.4747 7.38201 70.0954 7.38201ZM70.0954 6.33031C69.2392 6.33031 68.7703 5.65278 68.7703 4.64153C68.7703 3.63028 69.2392 2.94264 70.0954 2.94264C70.9414 2.94264 71.4204 3.63028 71.4204 4.64153C71.4204 5.65278 70.9414 6.33031 70.0954 6.33031ZM58.8189 7.38201C60.4395 7.38201 61.5505 6.18874 61.5505 4.64153C61.5505 3.09432 60.4395 1.90105 58.8189 1.90105C57.1982 1.90105 56.0872 3.09432 56.0872 4.64153C56.0872 6.18874 57.1982 7.38201 58.8189 7.38201ZM58.8189 6.33031C57.9627 6.33031 57.4938 5.65278 57.4938 4.64153C57.4938 3.63028 57.9627 2.94264 58.8189 2.94264C59.6649 2.94264 60.1439 3.63028 60.1439 4.64153C60.1439 5.65278 59.6649 6.33031 58.8189 6.33031ZM146.935 16.3086H148.074L146.658 23.5484H147.944L149.359 16.3086H150.905L151.117 15.2675H149.571L149.815 14.0021C149.88 13.6818 149.988 13.4522 150.14 13.3134C150.292 13.1746 150.569 13.1052 150.97 13.1052C151.155 13.1052 151.323 13.1105 151.475 13.1212L151.686 12.032C151.447 12.0107 151.209 12 150.97 12C150.254 12 149.706 12.1495 149.327 12.4485C148.947 12.7475 148.687 13.244 148.546 13.9381L148.285 15.2675H147.146L146.935 16.3086ZM130.068 16.773H131.224V21.5942C131.224 23.1479 132.411 23.5643 133.485 23.5643C134.364 23.5643 134.868 23.5323 134.868 23.5323V21.9306C134.868 21.9306 134.494 21.9466 134.218 21.9466C133.729 21.9466 133.388 21.7384 133.388 21.1297V16.773H134.82V15.3315H133.388V12.7687H131.224V15.3315H130.068V16.773ZM117.128 23.7885C119.275 23.7885 120.593 22.5552 120.902 21.0977H118.722C118.478 21.7223 117.974 22.1067 117.111 22.1067C115.858 22.1067 115.142 21.3219 114.98 20.0565H121.033C121.033 17.1254 119.601 15.1072 116.916 15.1072C114.475 15.1072 112.799 16.9973 112.799 19.4319C112.799 21.8825 114.361 23.7885 117.128 23.7885ZM116.949 16.789C117.957 16.789 118.657 17.5098 118.722 18.5509H115.012C115.208 17.4778 115.777 16.789 116.949 16.789ZM94.0177 16.773H95.1729V21.5942C95.1729 23.1479 96.3607 23.5643 97.4345 23.5643C98.3132 23.5643 98.8176 23.5323 98.8176 23.5323V21.9306C98.8176 21.9306 98.4433 21.9466 98.1667 21.9466C97.6786 21.9466 97.3369 21.7384 97.3369 21.1297V16.773H98.7688V15.3315H97.3369V12.7687H95.1729V15.3315H94.0177V16.773ZM85.7477 23.5483H87.8792V23.4683C87.684 23.3241 87.5863 22.9557 87.5863 22.331V18.1506C87.5863 16.2285 86.5776 15.1233 84.0718 15.1233C81.6312 15.1233 80.541 16.3887 80.476 17.8302H82.4447C82.5098 17.0454 83.0141 16.677 84.0555 16.677C84.9829 16.677 85.4549 17.0614 85.4549 17.654C85.4549 18.2787 84.8203 18.3908 83.4373 18.583C81.5824 18.8393 80.0855 19.4159 80.0855 21.2258C80.0855 22.8596 81.2895 23.7405 82.998 23.7405C84.4298 23.7405 85.0318 23.26 85.4549 22.6354H85.4874C85.5362 23.0038 85.6176 23.3882 85.7477 23.5483ZM83.5349 22.2189C82.7539 22.2189 82.2332 21.9466 82.2332 21.1778C82.2332 20.409 82.8027 20.1527 83.9579 19.8964C84.5111 19.7683 85.1132 19.6401 85.5037 19.4159V20.6492C85.5037 21.4501 84.804 22.2189 83.5349 22.2189ZM66.5387 23.7885C68.6865 23.7885 70.0045 22.5552 70.3137 21.0977H68.1334C67.8893 21.7223 67.3849 22.1067 66.5225 22.1067C65.2697 22.1067 64.5537 21.3219 64.391 20.0565H70.4438C70.4438 17.1254 69.012 15.1072 66.3273 15.1072C63.8866 15.1072 62.2107 16.9973 62.2107 19.4319C62.2107 21.8825 63.7726 23.7885 66.5387 23.7885ZM66.3598 16.789C67.3686 16.789 68.0683 17.5098 68.1334 18.5509H64.4236C64.6188 17.4778 65.1883 16.789 66.3598 16.789ZM154.167 40.2184C156.249 40.2184 157.681 39.2097 157.681 37.5339C157.681 35.5815 156.135 35.191 154.736 34.8982C153.548 34.6541 152.442 34.589 152.442 33.8732C152.442 33.2712 153.011 32.9458 153.874 32.9458C154.817 32.9458 155.387 33.2712 155.484 34.166H157.486C157.323 32.4902 156.103 31.4002 153.906 31.4002C152.003 31.4002 150.506 32.2625 150.506 34.0684C150.506 35.8906 151.97 36.2974 153.467 36.5902C154.606 36.818 155.663 36.8994 155.663 37.6966C155.663 38.2823 155.11 38.6565 154.134 38.6565C153.142 38.6565 152.458 38.2335 152.312 37.2736H150.262C150.392 39.047 151.742 40.2184 154.167 40.2184ZM136.284 42.8216C137.521 42.8216 138.594 42.5287 139.294 41.8779C139.912 41.3085 140.286 40.5113 140.286 39.3398V31.6279H138.155V32.5065H138.123C137.618 31.8069 136.854 31.4002 135.812 31.4002C133.697 31.4002 132.2 32.9946 132.2 35.4839C132.2 38.0057 134.023 39.47 135.877 39.47C136.935 39.47 137.569 39.047 138.058 38.4938H138.106V39.4049C138.106 40.5438 137.504 41.1458 136.252 41.1458C135.227 41.1458 134.755 40.739 134.576 40.2184H132.379C132.607 41.8454 134.006 42.8216 136.284 42.8216ZM136.252 37.6966C135.113 37.6966 134.364 36.8668 134.364 35.4513C134.364 34.0521 135.113 33.1736 136.235 33.1736C137.569 33.1736 138.22 34.2148 138.22 35.4351C138.22 36.6716 137.651 37.6966 136.252 37.6966ZM114.786 39.9745H122.611V38.0058H117.145V28.3416H114.786V39.9745ZM105.333 39.9744H107.465V39.893C107.269 39.7466 107.172 39.3724 107.172 38.7378V34.4914C107.172 32.5391 106.163 31.4164 103.658 31.4164C101.217 31.4164 100.127 32.7017 100.062 34.166H102.031C102.096 33.3688 102.6 32.9946 103.641 32.9946C104.569 32.9946 105.04 33.3851 105.04 33.9871C105.04 34.6216 104.406 34.7355 103.023 34.9307C101.168 35.191 99.6715 35.7767 99.6715 37.6152C99.6715 39.2748 100.875 40.1696 102.584 40.1696C104.015 40.1696 104.617 39.6815 105.04 39.047H105.073C105.122 39.4212 105.203 39.8117 105.333 39.9744ZM103.121 38.624C102.34 38.624 101.819 38.3474 101.819 37.5664C101.819 36.7855 102.388 36.5252 103.544 36.2648C104.097 36.1347 104.699 36.0045 105.089 35.7767V37.0295C105.089 37.843 104.39 38.624 103.121 38.624ZM86.0316 40.2184C88.6185 40.2184 90.3919 38.2986 90.3919 35.8093C90.3919 33.32 88.6185 31.4002 86.0316 31.4002C83.4447 31.4002 81.6712 33.32 81.6712 35.8093C81.6712 38.2986 83.4447 40.2184 86.0316 40.2184ZM86.0316 38.5263C84.665 38.5263 83.9165 37.4363 83.9165 35.8093C83.9165 34.1823 84.665 33.076 86.0316 33.076C87.382 33.076 88.1467 34.1823 88.1467 35.8093C88.1467 37.4363 87.382 38.5263 86.0316 38.5263ZM72.8204 33.0922H73.9757V37.9894C73.9757 39.5676 75.1634 39.9906 76.2372 39.9906C77.1158 39.9906 77.6201 39.9581 77.6201 39.9581V38.3311C77.6201 38.3311 77.2459 38.3474 76.9693 38.3474C76.4812 38.3474 76.1396 38.1359 76.1396 37.5176V33.0922H77.5713V31.628H76.1396V29.0248H73.9757V31.628H72.8204V33.0922ZM61.3457 39.9745H63.5583V31.6281H61.3457V39.9745ZM61.3457 30.3265H63.5583V28.3416H61.3457V30.3265ZM22 29.031H15V36.031H4V0.0310059H0V40.031H15V45.031H27.5C34.4036 45.031 40 39.4346 40 32.531C40 30.0315 39.2638 27.705 38 25.7517V10.031H22V14.031H35V20.031H22V29.031H26V24.031H27.5C32.1945 24.031 36 27.8366 36 32.531C36 37.2254 32.1945 41.031 27.5 41.031H19V33.031H22V29.031ZM15 29.031V4.03101H38V0.0310059H11V29.031H15Z" fill="#ffffff"></path>
</svg>